<?xml version="1.0" encoding="utf-8"?>
<!-- Generator: Adobe Illustrator 24.0.0, SVG Export Plug-In . SVG Version: 6.00 Build 0)  -->
<svg version="1.1" id="Layer_1" xmlns="http://www.w3.org/2000/svg" xmlns:xlink="http://www.w3.org/1999/xlink" x="0px" y="0px"
	 viewBox="0 0 24 24" style="enable-background:new 0 0 24 24;" xml:space="preserve">
<style type="text/css">
	.st0{fill:none;}
	.st1{fill:#617D8A;}
</style>
<title>Fold</title>
<desc>Created with Sketch.</desc>
<g>
	<polygon id="Path_4_" class="st0" points="0,0 24,0 24,24 0,24 	"/>
	<g>
		<path class="st0" d="M8.1,19.5c0,1.1,0.9,2,2,2h3.8c1.1,0,2-0.9,2-2v-6.1h-2.3l-5.4,5.4V19.5z"/>
		<path class="st0" d="M19.2,11.4c1.1,0,2-0.9,2-2V5.8l-5.6,5.6H19.2z"/>
		<path class="st0" d="M4.8,2.9c-1.1,0-2,0.9-2,2v4.5c0,1.1,0.9,2,2,2h4l8.5-8.5H4.8z"/>
		<path class="st1" d="M4.8,11.4c-1.1,0-2-0.9-2-2V4.9c0-1.1,0.9-2,2-2h12.5l2-2c-0.1,0-0.1,0-0.2,0H4.8c-2.2,0-4,1.8-4,4v4.5
			c0,2.2,1.8,4,4,4h1.3v0.8l2.8-2.8H4.8z"/>
		<path class="st1" d="M21.2,5.8v3.6c0,1.1-0.9,2-2,2h-3.6l-2,2h2.3v6.1c0,1.1-0.9,2-2,2h-3.8c-1.1,0-2-0.9-2-2v-0.7l-1.8,1.8
			c0.5,1.7,2,2.9,3.8,2.9h3.8c2.2,0,4-1.8,4-4v-6.1h1.3c2.2,0,4-1.8,4-4V4.9c0-0.3-0.1-0.7-0.1-1L21.2,5.8z"/>
	</g>
	<rect x="10.9" y="-3" transform="matrix(0.7071 0.7071 -0.7071 0.7071 11.7499 -5.0742)" class="st1" width="2.3" height="29.3"/>
</g>
</svg>
