<?xml version="1.0" encoding="utf-8"?>
<!-- Generator: Adobe Illustrator 24.0.0, SVG Export Plug-In . SVG Version: 6.00 Build 0)  -->
<svg version="1.1" id="Layer_1" xmlns="http://www.w3.org/2000/svg" xmlns:xlink="http://www.w3.org/1999/xlink" x="0px" y="0px"
	 viewBox="0 0 24 24" style="enable-background:new 0 0 24 24;" xml:space="preserve">
<style type="text/css">
	.st0{fill:none;}
	.st1{fill:#617D8A;}
</style>
<title>Fold</title>
<desc>Created with Sketch.</desc>
<g>
	<polygon id="Path_4_" class="st0" points="0,0 24,0 24,24 0,24 	"/>
	<path class="st1" d="M19.2,0.9H4.8c-2.2,0-4,1.8-4,4v4.5c0,2.2,1.8,4,4,4h1.3v6.1c0,2.2,1.8,4,4,4h3.8c2.2,0,4-1.8,4-4v-6.1h1.3
		c2.2,0,4-1.8,4-4V4.9C23.2,2.7,21.4,0.9,19.2,0.9z M15.9,19.5c0,1.1-0.9,2-2,2h-3.8c-1.1,0-2-0.9-2-2v-6.1h7.8V19.5z M21.2,9.4
		c0,1.1-0.9,2-2,2H4.8c-1.1,0-2-0.9-2-2V4.9c0-1.1,0.9-2,2-2h14.3c1.1,0,2,0.9,2,2V9.4z"/>
</g>
</svg>
