<?xml version="1.0" encoding="UTF-8" standalone="no"?>
<svg
   xmlns:dc="http://purl.org/dc/elements/1.1/"
   xmlns:cc="http://creativecommons.org/ns#"
   xmlns:rdf="http://www.w3.org/1999/02/22-rdf-syntax-ns#"
   xmlns:svg="http://www.w3.org/2000/svg"
   xmlns="http://www.w3.org/2000/svg"
   xmlns:sodipodi="http://sodipodi.sourceforge.net/DTD/sodipodi-0.dtd"
   xmlns:inkscape="http://www.inkscape.org/namespaces/inkscape"
   width="24"
   height="24"
   viewBox="0 0 24 24"
   version="1.1"
   id="svg4"
   sodipodi:docname="dual_on.svg"
   inkscape:version="0.92.4 (5da689c313, 2019-01-14)">
  <metadata
     id="metadata10">
    <rdf:RDF>
      <cc:Work
         rdf:about="">
        <dc:format>image/svg+xml</dc:format>
        <dc:type
           rdf:resource="http://purl.org/dc/dcmitype/StillImage" />
      </cc:Work>
    </rdf:RDF>
  </metadata>
  <defs
     id="defs8" />
  <sodipodi:namedview
     pagecolor="#ffffff"
     bordercolor="#666666"
     borderopacity="1"
     objecttolerance="10"
     gridtolerance="10"
     guidetolerance="10"
     inkscape:pageopacity="0"
     inkscape:pageshadow="2"
     inkscape:window-width="640"
     inkscape:window-height="480"
     id="namedview6"
     showgrid="false"
     inkscape:zoom="9.8333333"
     inkscape:cx="12"
     inkscape:cy="12"
     inkscape:window-x="0"
     inkscape:window-y="0"
     inkscape:window-maximized="0"
     inkscape:current-layer="svg4" />
  <path
     d="M 10.839767,2.3728814 H 2.0755022 A 0.97380723,2.2669492 0 0 0 1.1016949,4.6398305 V 18.241526 c 0,1.246822 0.4382133,2.266949 0.9738073,2.266949 h 8.7642648 a 0.97380723,2.2669492 0 0 0 0.968938,-2.266949 l 0.0048,-13.6016955 A 0.97380723,2.2669492 0 0 0 10.839767,2.3728814 Z M 9.8659598,18.241526 H 3.0493094 V 4.6398305 h 6.8166504 z"
     id="path2"
     inkscape:connector-curvature="0"
     style="fill:#617d8a;stroke-width:0.74289495" />
  <path
     d="M 21.915269,2.322034 H 13.067798 A 0.98305225,2.2669492 0 0 0 12.084746,4.5889831 V 18.190678 c 0,1.246822 0.442374,2.266949 0.983052,2.266949 h 8.847471 a 0.98305225,2.2669492 0 0 0 0.978137,-2.266949 l 0.0049,-13.6016949 a 0.98305225,2.2669492 0 0 0 -0.983,-2.2669491 z M 20.932215,18.190678 H 14.05085 V 4.5889831 h 6.881365 z"
     id="path2-2"
     inkscape:connector-curvature="0"
     style="fill:#617d8a;stroke-width:0.74641305" />
</svg>
