<?xml version="1.0" encoding="UTF-8" standalone="no"?>
<!-- Generator: Adobe Illustrator 24.0.0, SVG Export Plug-In . SVG Version: 6.00 Build 0)  -->

<svg
   xmlns:dc="http://purl.org/dc/elements/1.1/"
   xmlns:cc="http://creativecommons.org/ns#"
   xmlns:rdf="http://www.w3.org/1999/02/22-rdf-syntax-ns#"
   xmlns:svg="http://www.w3.org/2000/svg"
   xmlns="http://www.w3.org/2000/svg"
   xmlns:sodipodi="http://sodipodi.sourceforge.net/DTD/sodipodi-0.dtd"
   xmlns:inkscape="http://www.inkscape.org/namespaces/inkscape"
   version="1.1"
   id="Layer_1"
   x="0px"
   y="0px"
   viewBox="0 0 24 24"
   style="enable-background:new 0 0 24 24;"
   xml:space="preserve"
   sodipodi:docname="swivel_on.svg"
   inkscape:version="0.92.4 (5da689c313, 2019-01-14)"><metadata
   id="metadata18"><rdf:RDF><cc:Work
       rdf:about=""><dc:format>image/svg+xml</dc:format><dc:type
         rdf:resource="http://purl.org/dc/dcmitype/StillImage" /></cc:Work></rdf:RDF></metadata><defs
   id="defs16" /><sodipodi:namedview
   pagecolor="#ffffff"
   bordercolor="#666666"
   borderopacity="1"
   objecttolerance="10"
   gridtolerance="10"
   guidetolerance="10"
   inkscape:pageopacity="0"
   inkscape:pageshadow="2"
   inkscape:window-width="1920"
   inkscape:window-height="1057"
   id="namedview14"
   showgrid="false"
   inkscape:zoom="19.666667"
   inkscape:cx="-23.295275"
   inkscape:cy="7.4607859"
   inkscape:window-x="-8"
   inkscape:window-y="-8"
   inkscape:window-maximized="1"
   inkscape:current-layer="Layer_1" />
<style
   type="text/css"
   id="style2">
	.st0{fill:none;}
	.st1{fill:#617D8A;}
</style>
<title
   id="title4">Fold</title>
<desc
   id="desc6">Created with Sketch.</desc>
<g
   id="g11">
	<polygon
   id="Path_4_"
   class="st0"
   points="0,0 24,0 24,24 0,24  " />
	<path
   class="st1"
   d="M19.2,0.9H4.8c-2.2,0-4,1.8-4,4v4.5c0,2.2,1.8,4,4,4h1.3v6.1c0,2.2,1.8,4,4,4h3.8c2.2,0,4-1.8,4-4v-6.1h1.3   c2.2,0,4-1.8,4-4V4.9C23.2,2.7,21.4,0.9,19.2,0.9z M15.9,19.5c0,1.1-0.9,2-2,2h-3.8c-1.1,0-2-0.9-2-2v-6.1h7.8V19.5z M21.2,9.4   c0,1.1-0.9,2-2,2H4.8c-1.1,0-2-0.9-2-2V4.9c0-1.1,0.9-2,2-2h14.3c1.1,0,2,0.9,2,2V9.4z"
   id="path9" />
</g>
<path
   style="fill:#f4e3d7;fill-opacity:0.67912574;stroke-width:0.05084746"
   d="M 9.599196,23.447266 C 8.0872713,23.241851 6.8321902,22.201563 6.313595,20.72396 L 6.170827,20.31718 6.1454033,16.859553 6.1199796,13.401926 5.1284541,13.37244 C 4.4295869,13.351657 4.0419176,13.317164 3.8150314,13.255578 2.5758678,12.919221 1.5690259,12.020783 1.0985719,10.831593 0.83778385,10.172386 0.83184396,10.090348 0.83184396,7.1476887 c 0,-3.0716602 0.007852,-3.1563741 0.36080384,-3.892862 C 1.792999,2.0021041 2.8817914,1.179304 4.2131999,0.9721964 4.4949723,0.92836522 6.592865,0.91736534 12.247098,0.93007224 c 7.207112,0.0161967 7.670194,0.0225484 7.955794,0.10912146 1.185912,0.3594824 2.138256,1.1724235 2.621185,2.2374985 0.334787,0.7383583 0.329801,0.6798315 0.329801,3.8709965 0,3.2772783 0.01144,3.1649323 -0.409035,4.0169493 -0.385537,0.78122 -1.006847,1.403063 -1.777406,1.77893 -0.711854,0.347232 -0.928252,0.391042 -2.069378,0.418955 l -1.001581,0.0245 -0.01865,3.363384 c -0.02101,3.788069 -0.0076,3.644031 -0.417523,4.482028 -0.407203,0.832422 -1.005861,1.430131 -1.831846,1.828941 -0.826455,0.399037 -0.821304,0.398419 -3.432203,0.412198 -1.272458,0.0067 -2.4411328,-0.0051 -2.597055,-0.02631 z m 5.139573,-2.117296 c 0.423576,-0.20074 0.786481,-0.563645 0.98722,-0.987221 l 0.156702,-0.330654 0.01413,-3.317796 0.01413,-3.317797 H 11.994276 8.0776067 v 3.167283 c 0,3.43406 0.00492,3.503378 0.281881,3.975987 0.2537258,0.43295 0.7771139,0.823044 1.2689664,0.945792 0.083898,0.02094 1.1936439,0.03425 2.4661019,0.02959 l 2.313559,-0.0085 z M 19.4543,11.396351 c 0.674819,-0.0976 1.255037,-0.512493 1.547489,-1.10655 L 21.162374,9.9636087 21.150549,7.4878521 C 21.144046,6.1261862 21.119147,4.854923 21.095217,4.6628234 21.009023,3.9708658 20.565145,3.3584325 19.936153,3.0636237 l -0.29075,-0.136274 H 11.942013 4.2386236 L 3.9346477,3.0763619 C 3.5299105,3.2747684 3.1774297,3.6366095 2.9772575,4.0591759 L 2.8148948,4.401926 2.800463,7.0552038 c -0.01404,2.5811893 -0.01153,2.6618934 0.092385,2.9703602 0.2505854,0.743851 0.8485238,1.252448 1.6013659,1.362097 0.4070458,0.05928 14.5534631,0.0675 14.9600861,0.0087 z"
   id="path20"
   inkscape:connector-curvature="0" /><path
   style="fill:#ffffff;fill-opacity:0.67912574;stroke-width:0.05084746"
   d="M 9.2656046,23.370234 C 8.5536126,23.211117 7.6953757,22.719522 7.2279533,22.203075 6.9455989,21.891105 6.5893489,21.352803 6.4733058,21.062783 6.4267168,20.946345 6.3689196,20.851079 6.3448682,20.851079 c -0.024052,0 -0.03056,-0.03432 -0.014463,-0.07627 0.016098,-0.04195 0.00259,-0.07627 -0.03002,-0.07627 -0.032608,0 -0.044528,-0.02388 -0.026486,-0.05307 0.018041,-0.02919 0.010255,-0.08067 -0.017303,-0.114407 -0.053738,-0.06578 -0.1071234,-2.746 -0.1095905,-5.50201 l -0.00145,-1.627119 -0.7246485,0.0081 c -0.3985592,0.0044 -0.6445662,-0.0078 -0.5466849,-0.02726 0.1306905,-0.02594 0.028095,-0.04392 -0.3862119,-0.06768 C 4.0220646,13.288339 3.844682,13.252977 3.469298,13.111978 2.5201345,12.755457 1.7103999,12.029958 1.2772596,11.147974 1.1444199,10.877478 1.02418,10.644723 1.0100596,10.63074 0.99593932,10.616756 0.97922356,10.559553 0.9729135,10.503621 0.96660345,10.447689 0.93616578,10.195994 0.90527424,9.9442989 0.86749642,9.6364963 0.85771575,8.6126939 0.87540001,6.8171802 0.90179515,4.1372353 0.90857659,3.9398429 0.9781169,3.8273244 0.99884909,3.793779 1.0028782,3.7454057 0.98707039,3.7198282 0.97126262,3.6942507 0.97563257,3.665649 0.99678139,3.6562689 1.0179302,3.6468888 1.1119643,3.4790446 1.2057461,3.2832819 1.6613559,2.332229 2.4391336,1.591667 3.3742168,1.2185697 3.5420135,1.1516191 3.686119,1.0821093 3.6944514,1.0641035 c 0.00833,-0.018006 0.059816,-0.021057 0.1144068,-0.00678 0.054591,0.014276 0.099257,0.00368 0.099257,-0.023539 0,-0.030743 0.6598196,-0.0570707 1.7415254,-0.0694897 3.8948603,-0.044717 14.4188764,4.3322e-4 14.4569414,0.0620232 0.01625,0.026289 0.05642,0.042982 0.08927,0.037095 0.03285,-0.00589 0.147961,0.027677 0.255804,0.074585 0.107844,0.046909 0.214577,0.073857 0.237183,0.059885 0.02261,-0.013972 0.04878,-0.00767 0.05816,0.014005 0.0094,0.021674 0.177224,0.1339499 0.372987,0.2495012 0.691552,0.4081975 1.188635,0.9093576 1.5549,1.5676566 0.09336,0.1677966 0.187985,0.3127594 0.21028,0.3221395 0.0223,0.00938 0.02911,0.035551 0.01514,0.058158 -0.01397,0.022607 0.01249,0.1293387 0.05881,0.2371826 0.04631,0.1078438 0.09765,0.2876051 0.114069,0.3994695 0.03974,0.2706864 0.03856,5.9432196 -0.0013,6.2033906 -0.01713,0.111864 -0.04949,0.249152 -0.07189,0.305084 -0.401381,1.001963 -0.905793,1.656886 -1.643812,2.134308 -0.732259,0.473696 -1.263106,0.628046 -2.219245,0.645271 -0.487595,0.0088 -0.494903,0.01053 -0.177966,0.04246 0.264906,0.02669 0.191734,0.03504 -0.368644,0.04207 l -0.699155,0.0088 -0.0041,0.673729 c -0.0082,1.332393 -0.09751,6.167993 -0.116206,6.292372 -0.01051,0.06992 -0.03703,0.172882 -0.05892,0.228814 -0.543183,1.387457 -1.256788,2.104681 -2.66818,2.681711 -0.223891,0.09154 -0.338719,0.0961 -2.923729,0.116208 -2.025358,0.01576 -2.6058213,0.0056 -2.8543749,-0.04995 z m 5.4138304,-1.994685 c 0.285617,-0.134271 0.974443,-0.755468 0.974443,-0.878775 0,-0.03286 0.03534,-0.09508 0.07854,-0.13828 0.0432,-0.0432 0.06996,-0.104283 0.05947,-0.135745 -0.01049,-0.03146 0.01045,-0.08672 0.04653,-0.122804 0.05217,-0.05217 0.06621,-0.74474 0.06858,-3.38181 l 0.003,-3.316209 h -3.90348 -3.9034791 l 0.00754,3.152542 c 0.00765,3.197996 0.021955,3.645424 0.1176102,3.677309 0.029399,0.0098 0.041659,0.0369 0.027245,0.06022 -0.014414,0.02332 0.0026,0.0734 0.037819,0.111275 0.035214,0.03788 0.071423,0.101954 0.080463,0.142392 0.018926,0.08466 0.5571615,0.610496 0.6248898,0.610496 0.024813,0 0.045115,0.02006 0.045115,0.04459 0,0.06237 0.5006064,0.271364 0.5608362,0.234139 0.027135,-0.01677 0.049335,-0.0072 0.049335,0.02135 0,0.03445 0.7943249,0.05232 2.3687769,0.05327 l 2.368777,0.0014 0.288003,-0.135391 z m 4.864273,-9.992013 c 0.265689,-0.07005 0.736893,-0.266868 0.737098,-0.307881 1.02e-4,-0.02097 0.01898,-0.03814 0.04194,-0.03814 0.06158,0 0.517572,-0.44722 0.517572,-0.507619 0,-0.02844 0.0201,-0.0517 0.04468,-0.0517 0.04335,0 0.176417,-0.270915 0.162161,-0.330143 -0.0039,-0.01618 0.02823,-0.06474 0.0714,-0.107898 0.06935,-0.069347 0.07532,-0.3664083 0.05134,-2.553269 -0.01492,-1.3611351 -0.04262,-2.5777576 -0.06155,-2.7036051 -0.01893,-0.1258474 -0.0361,-0.2516949 -0.03816,-0.279661 -0.0021,-0.027966 -0.0191,-0.075332 -0.03788,-0.105258 -0.01878,-0.029926 -0.04442,-0.1100104 -0.05699,-0.1779661 -0.03191,-0.1725234 -0.142907,-0.4032166 -0.194007,-0.4032166 -0.02348,0 -0.04268,-0.022279 -0.04268,-0.049509 0,-0.065169 -0.471907,-0.5378555 -0.521187,-0.5220467 -0.02097,0.00673 -0.03814,-0.00571 -0.03814,-0.02765 0,-0.054751 -0.305369,-0.2310185 -0.340082,-0.1963047 -0.01538,0.015376 -0.06104,-0.00513 -0.10148,-0.045566 -0.06349,-0.063485 -1.124594,-0.073522 -7.771947,-0.073517 -7.6814553,6.3e-6 -7.9559829,0.00563 -7.9559829,0.1630447 0,0.025128 -0.021037,0.032685 -0.046748,0.016795 -0.025711,-0.015891 -0.080191,0.00455 -0.1210654,0.045425 -0.040874,0.040874 -0.084528,0.064107 -0.097007,0.051627 C 3.6942122,3.128701 3.291226,3.5344998 3.1594757,3.7690787 3.0818206,3.9073421 2.9997732,4.0204899 2.9771482,4.0205183 c -0.022625,2.85e-5 -0.026995,0.022933 -0.00971,0.050899 0.017284,0.027966 0.010856,0.050847 -0.014284,0.050847 -0.1458211,0 -0.1666107,0.4176438 -0.1505999,3.0254237 0.015449,2.5162902 0.032215,2.870776 0.1420323,3.003099 0.026066,0.03141 0.032338,0.07216 0.013936,0.09056 -0.018401,0.0184 -0.00541,0.03346 0.028866,0.03346 0.034278,0 0.048181,0.02288 0.030897,0.05085 -0.017284,0.02797 -0.00719,0.05085 0.022423,0.05085 0.029617,0 0.053848,0.03432 0.053848,0.07627 0,0.04195 0.022881,0.07627 0.050847,0.07627 0.027966,0 0.050847,0.02968 0.050847,0.06595 0,0.07582 0.4059824,0.488149 0.4083259,0.414707 8.502e-4,-0.02665 0.025138,-0.0079 0.053973,0.0416 0.028834,0.04953 0.073901,0.07678 0.1001487,0.06056 0.026247,-0.01622 0.047722,-0.0095 0.047722,0.01494 0,0.05995 0.3515636,0.224509 0.4067583,0.190397 0.024113,-0.0149 0.056343,-0.0069 0.071622,0.01785 0.015279,0.02472 0.2161584,0.04897 0.4463992,0.05388 0.2302408,0.0049 0.4293009,0.01962 0.4423559,0.03267 0.032819,0.03282 14.2440754,-0.0048 14.3701524,-0.03807 z"
   id="path22"
   inkscape:connector-curvature="0" /><path
   style="fill:#ffffff;fill-opacity:0.67912574;stroke-width:0.05084746"
   d="M 9.0691321,23.295002 C 7.8994982,22.94534 6.9854221,22.137275 6.4392436,20.970119 6.2268248,20.516191 6.2129048,20.284884 6.1666189,16.440062 l -0.03688,-3.06356 -0.5133542,-4.61e-4 C 4.7880996,13.375296 3.8506491,13.245067 3.4134795,13.070016 2.7068039,12.787049 1.9798822,12.220083 1.5836195,11.642807 1.2977597,11.226366 1.0147916,10.598002 0.95242705,10.241171 0.87233025,9.7828801 0.8827985,4.3792152 0.96457641,3.9697226 0.99529382,3.815909 1.1248433,3.4869007 1.2524641,3.238593 1.7448974,2.2804815 2.4102529,1.6500311 3.3661583,1.2357848 3.7365642,1.0752676 3.8497032,1.0519297 4.4664474,1.0088218 4.8726788,0.9804279 8.2010155,0.96958764 12.60303,0.9823213 l 7.449153,0.0215481 0.40678,0.1501299 c 0.47072,0.1737286 1.029364,0.5284538 1.459718,0.9268861 0.412081,0.3815139 0.875145,1.0974564 1.032977,1.597083 l 0.125949,0.3986988 -0.0011,3.0863581 -0.0011,3.0863587 -0.122429,0.346925 c -0.203883,0.57774 -0.526836,1.091003 -0.968647,1.53945 -0.79395,0.805875 -1.714222,1.18543 -2.882592,1.188889 -0.187121,5.54e-4 -0.354361,0.02389 -0.371645,0.05185 -0.01728,0.02797 -0.201685,0.05085 -0.409781,0.05085 h -0.378354 l -0.012,3.13983 -0.012,3.139831 -0.02614,-2.542373 -0.02614,-2.542373 -0.04073,2.732605 c -0.0224,1.502934 -0.0618,2.864374 -0.08754,3.025424 -0.06109,0.382135 -0.430954,1.1255 -0.785337,1.578417 -0.154015,0.196839 -0.434765,0.474459 -0.623887,0.616935 -0.463664,0.349302 -1.192337,0.706365 -1.566568,0.767646 -0.170064,0.02785 -1.416789,0.04811 -2.845087,0.04624 C 9.624963,23.38653 9.3440602,23.3772 9.0690721,23.295 Z m 5.5582729,-1.879743 c 0.117103,-0.05974 0.212914,-0.132387 0.212914,-0.161435 0,-0.02905 0.02147,-0.03954 0.04772,-0.02332 0.02625,0.01622 0.06629,-2.03e-4 0.08898,-0.03653 0.02269,-0.03631 0.185117,-0.189691 0.360942,-0.340843 0.184381,-0.158508 0.308799,-0.303181 0.293969,-0.341828 -0.01414,-0.03685 -0.0024,-0.06701 0.02613,-0.06701 0.02852,0 0.08683,-0.08373 0.129592,-0.18607 0.06677,-0.159816 0.07896,-0.658453 0.08639,-3.533879 l 0.0086,-3.347809 -3.910832,-1.9e-5 -3.9108311,-2e-5 0.037189,3.190678 c 0.020454,1.754873 0.043948,3.286374 0.052208,3.403335 0.00826,0.116962 0.06577,0.311454 0.1278,0.432204 0.1126851,0.219359 0.5518292,0.688037 0.6230634,0.664967 0.020729,-0.0067 0.06034,0.03012 0.088025,0.08185 0.060011,0.112131 0.5424636,0.330424 0.6440878,0.291427 0.039228,-0.01505 0.071342,-0.01093 0.071363,0.0092 2.13e-5,0.0201 1.0597189,0.04491 2.3548839,0.05514 2.323001,0.01835 2.357723,0.01714 2.567757,-0.09002 z m 4.903592,-10.01556 c 0.07691,-0.0025 0.13983,-0.02923 0.13983,-0.05929 0,-0.03006 0.02224,-0.04091 0.04941,-0.02412 0.02718,0.0168 0.103367,-0.0048 0.169313,-0.04802 0.06595,-0.04321 0.135237,-0.06323 0.153979,-0.04449 0.01874,0.01874 0.03408,0.006 0.03408,-0.02825 0,-0.03428 0.02222,-0.04859 0.04937,-0.03181 0.02715,0.01678 0.09992,-0.02763 0.161712,-0.09869 0.06179,-0.07106 0.129919,-0.129206 0.151401,-0.129206 0.05496,0 0.323958,-0.254978 0.323958,-0.307074 0,-0.02367 0.05033,-0.08993 0.11185,-0.147241 0.06152,-0.05731 0.159945,-0.212929 0.218727,-0.345817 0.105277,-0.2379969 0.106462,-0.2800386 0.07917,-2.8096086 -0.01709,-1.5839184 -0.04656,-2.5742818 -0.07691,-2.584398 -0.02706,-0.00902 -0.0358,-0.083437 -0.01941,-0.1653685 0.01882,-0.094103 0.0087,-0.1489672 -0.02741,-0.1489672 -0.03146,0 -0.05449,-0.017161 -0.05118,-0.038136 0.0033,-0.020975 0.0017,-0.049576 -0.0035,-0.063559 -0.0052,-0.013983 -0.01763,-0.086464 -0.02753,-0.161068 -0.02051,-0.1544832 -0.166231,-0.398254 -0.238074,-0.398254 -0.0264,0 -0.0351,-0.020866 -0.01934,-0.04637 0.05253,-0.084995 -0.585259,-0.6085675 -0.872023,-0.71586 -0.271243,-0.10148 -0.359536,-0.1024712 -7.987883,-0.089683 L 4.1369287,2.9273497 3.8826914,3.0748715 c -0.2847817,0.1652453 -0.643595,0.4848352 -0.6083556,0.5418539 0.012664,0.020491 -0.011165,0.050377 -0.052953,0.066412 -0.041789,0.016036 -0.075979,0.064196 -0.075979,0.1070229 0,0.042827 -0.024232,0.077867 -0.053848,0.077867 -0.029617,0 -0.039707,0.022881 -0.022423,0.050847 0.017284,0.027966 0.00983,0.050847 -0.016575,0.050847 -0.0264,0 -0.087765,0.060688 -0.1363653,0.1348619 -0.081468,0.1243358 -0.087662,0.3499703 -0.079362,2.8908333 0.00925,2.8308677 0.017658,3.0891975 0.1014848,3.1171405 0.026858,0.009 0.036909,0.04735 0.022335,0.08533 -0.014574,0.03798 0.019126,0.11468 0.07489,0.170444 0.055764,0.05576 0.089033,0.113744 0.073932,0.128846 -0.015102,0.0151 0.1069322,0.161279 0.2711864,0.324837 0.3089489,0.30764 0.727626,0.552216 0.859008,0.501799 0.041376,-0.01588 0.075229,-0.01008 0.075229,0.01288 0,0.02296 0.1517525,0.04434 0.3372279,0.0475 0.1854753,0.0032 0.3504838,0.019 0.3666855,0.0352 0.022301,0.0223 13.8092129,0.0036 14.5121889,-0.0197 z"
   id="path24"
   inkscape:connector-curvature="0" /></svg>