<?xml version="1.0" encoding="UTF-8" standalone="no"?>
<!-- Generator: Adobe Illustrator 24.0.0, SVG Export Plug-In . SVG Version: 6.00 Build 0)  -->

<svg
   xmlns:dc="http://purl.org/dc/elements/1.1/"
   xmlns:cc="http://creativecommons.org/ns#"
   xmlns:rdf="http://www.w3.org/1999/02/22-rdf-syntax-ns#"
   xmlns:svg="http://www.w3.org/2000/svg"
   xmlns="http://www.w3.org/2000/svg"
   xmlns:sodipodi="http://sodipodi.sourceforge.net/DTD/sodipodi-0.dtd"
   xmlns:inkscape="http://www.inkscape.org/namespaces/inkscape"
   version="1.1"
   id="Layer_1"
   x="0px"
   y="0px"
   viewBox="0 0 24 24"
   style="enable-background:new 0 0 24 24;"
   xml:space="preserve"
   sodipodi:docname="swivel_off.svg"
   inkscape:version="0.92.4 (5da689c313, 2019-01-14)"><metadata
   id="metadata30"><rdf:RDF><cc:Work
       rdf:about=""><dc:format>image/svg+xml</dc:format><dc:type
         rdf:resource="http://purl.org/dc/dcmitype/StillImage" /></cc:Work></rdf:RDF></metadata><defs
   id="defs28" /><sodipodi:namedview
   pagecolor="#ffffff"
   bordercolor="#666666"
   borderopacity="1"
   objecttolerance="10"
   gridtolerance="10"
   guidetolerance="10"
   inkscape:pageopacity="0"
   inkscape:pageshadow="2"
   inkscape:window-width="1920"
   inkscape:window-height="1057"
   id="namedview26"
   showgrid="false"
   inkscape:zoom="32"
   inkscape:cx="11.781071"
   inkscape:cy="11.215943"
   inkscape:window-x="1912"
   inkscape:window-y="-8"
   inkscape:window-maximized="1"
   inkscape:current-layer="Layer_1" />
<style
   type="text/css"
   id="style2">
	.st0{fill:none;}
	.st1{fill:#617D8A;}
</style>
<title
   id="title4">Fold</title>
<desc
   id="desc6">Created with Sketch.</desc>
<g
   id="g23">
	<polygon
   id="Path_4_"
   class="st0"
   points="0,0 24,0 24,24 0,24  " />
	<g
   id="g19">
		<path
   class="st0"
   d="M8.1,19.5c0,1.1,0.9,2,2,2h3.8c1.1,0,2-0.9,2-2v-6.1h-2.3l-5.4,5.4V19.5z"
   id="path9" />
		<path
   class="st0"
   d="M19.2,11.4c1.1,0,2-0.9,2-2V5.8l-5.6,5.6H19.2z"
   id="path11" />
		<path
   class="st0"
   d="M4.8,2.9c-1.1,0-2,0.9-2,2v4.5c0,1.1,0.9,2,2,2h4l8.5-8.5H4.8z"
   id="path13" />
		<path
   class="st1"
   d="M4.8,11.4c-1.1,0-2-0.9-2-2V4.9c0-1.1,0.9-2,2-2h12.5l2-2c-0.1,0-0.1,0-0.2,0H4.8c-2.2,0-4,1.8-4,4v4.5    c0,2.2,1.8,4,4,4h1.3v0.8l2.8-2.8H4.8z"
   id="path15" />
		<path
   class="st1"
   d="M21.2,5.8v3.6c0,1.1-0.9,2-2,2h-3.6l-2,2h2.3v6.1c0,1.1-0.9,2-2,2h-3.8c-1.1,0-2-0.9-2-2v-0.7l-1.8,1.8    c0.5,1.7,2,2.9,3.8,2.9h3.8c2.2,0,4-1.8,4-4v-6.1h1.3c2.2,0,4-1.8,4-4V4.9c0-0.3-0.1-0.7-0.1-1L21.2,5.8z"
   id="path17" />
	</g>
	<rect
   x="10.9"
   y="-3"
   transform="matrix(0.7071 0.7071 -0.7071 0.7071 11.7499 -5.0742)"
   class="st1"
   width="2.3"
   height="29.3"
   id="rect21" />
</g>
<path
   style="fill:#ffffff;fill-opacity:0.67912574;stroke-width:0.00390625"
   d=""
   id="path120"
   inkscape:connector-curvature="0" /><path
   style="fill:#ffffff;fill-opacity:0.67912574;stroke-width:0.00390625"
   d=""
   id="path124"
   inkscape:connector-curvature="0" /><path
   style="fill:#ffffff;fill-opacity:0.67912574;stroke-width:0.00390625"
   d=""
   id="path130"
   inkscape:connector-curvature="0" /><path
   style="fill:#ffffff;fill-opacity:1;stroke-width:0.003125;stroke-miterlimit:4;stroke-dasharray:none;paint-order:stroke fill markers"
   d="M 6.1248215,13.790245 V 13.412324 L 5.257634,13.393828 C 4.3129878,13.373681 4.0400468,13.340171 3.5703009,13.186665 2.3038787,12.772817 1.2891744,11.700834 0.95187933,10.420436 0.82081461,9.9229048 0.81231304,9.7217283 0.81250573,7.122377 0.81265789,5.0696948 0.82087292,4.5828895 0.85970889,4.3252192 1.0837679,2.8386229 2.139591,1.5802381 3.5450971,1.124634 3.8990806,1.0098879 4.0669431,0.9734463 4.4216965,0.93433095 4.5995774,0.9147177 7.3789918,0.90322591 11.984013,0.90306375 l 7.281067,-2.564e-4 -0.999634,0.99999995 -0.999633,1 h -6.386298 c -7.0352387,0 -6.5419538,-0.01354 -6.953971,0.1908826 C 3.4229136,3.343071 3.0639877,3.755015 2.8823464,4.290982 L 2.79679,4.5434323 2.7876733,7.011778 c -0.00609,1.6502422 0.00202,2.54012 0.024483,2.6849 0.1134831,0.731416 0.6061812,1.324461 1.3363669,1.608541 l 0.2106734,0.08196 2.2579659,0.01563 2.2579663,0.01563 -1.3751538,1.374867 -1.3751534,1.374867 z"
   id="path985"
   inkscape:connector-curvature="0" /><path
   style="fill:#ffffff;fill-opacity:1;stroke-width:0.003125;stroke-miterlimit:4;stroke-dasharray:none;paint-order:stroke fill markers"
   d="M 9.6815659,23.463822 C 8.2270781,23.303648 6.9800869,22.334192 6.4348796,20.939731 L 6.3066438,20.611746 7.2001077,19.718282 8.0935715,18.824818 8.0940334,19.2935 c 5.365e-4,0.544444 0.04024,0.753469 0.209654,1.103763 0.1598169,0.330451 0.5506542,0.723639 0.8836341,0.88895 0.4689297,0.232804 0.3838628,0.225969 2.8124995,0.225969 2.42626,0 2.338648,0.007 2.8125,-0.224526 0.326157,-0.159357 0.7214,-0.555604 0.882607,-0.884849 0.218866,-0.447005 0.210168,-0.289299 0.210682,-3.820312 l 4.61e-4,-3.179688 h -1.125 c -0.61875,0 -1.125,-0.01063 -1.125,-0.02362 0,-0.01299 0.439454,-0.462635 0.976563,-0.999204 l 0.976562,-0.97558 2.015625,-0.0086 2.015625,-0.0086 0.210674,-0.08196 c 0.308541,-0.120039 0.542655,-0.268717 0.757573,-0.481111 0.231948,-0.229223 0.389181,-0.481605 0.506015,-0.812226 l 0.08824,-0.2496997 0.0089,-1.984375 0.0089,-1.984375 0.928582,-0.9298613 0.928582,-0.9298614 0.05308,0.3986114 c 0.04595,0.3450253 0.0533,0.7263989 0.05471,2.836931 0.001,1.5064178 -0.01078,2.539526 -0.03084,2.703125 -0.212487,1.732913 -1.55318,3.146298 -3.27721,3.454904 -0.174756,0.03128 -0.571096,0.05451 -1.135632,0.06655 l -0.867188,0.0185 v 3.241148 c 0,2.732347 -0.0073,3.283102 -0.0466,3.508396 -0.191241,1.096657 -0.819532,2.05263 -1.750271,2.663113 -0.454908,0.298381 -0.839675,0.460452 -1.383003,0.582546 -0.295947,0.0665 -0.367237,0.06863 -2.538872,0.07558 -1.228906,0.0039 -2.3424333,-0.0047 -2.4745051,-0.01929 z"
   id="path987"
   inkscape:connector-curvature="0" /><path
   style="fill:#ffffff;fill-opacity:1;stroke-width:0.003125;stroke-miterlimit:4;stroke-dasharray:none;paint-order:stroke fill markers"
   d="M 1.6794892,22.035604 0.87502494,21.230694 11.226607,10.879146 21.57819,0.52759956 22.382654,1.3325103 23.187118,2.1374211 12.835536,12.488968 2.4839534,22.840515 Z"
   id="path989"
   inkscape:connector-curvature="0" /></svg>